<svg xmlns="http://www.w3.org/2000/svg" style="display: none;">
  <!-- Settings Icon - Gear -->
  <symbol id="settings" viewBox="0 0 24 24">
    <path fill="none" stroke="currentColor" stroke-width="1.5" stroke-linecap="round" stroke-linejoin="round"
          d="M12 15a3 3 0 1 0 0-6 3 3 0 0 0 0 6Z"/>
    <path fill="none" stroke="currentColor" stroke-width="1.5" stroke-linecap="round" stroke-linejoin="round"
          d="M19.4 15a1.65 1.65 0 0 0 .33 1.82l.06.06a2 2 0 0 1 0 2.83 2 2 0 0 1-2.83 0l-.06-.06a1.65 1.65 0 0 0-1.82-.33 1.65 1.65 0 0 0-1 1.51V21a2 2 0 0 1-2 2 2 2 0 0 1-2-2v-.09A1.65 1.65 0 0 0 9 19.4a1.65 1.65 0 0 0-1.82.33l-.06.06a2 2 0 0 1-2.83 0 2 2 0 0 1 0-2.83l.06-.06a1.65 1.65 0 0 0 .33-1.82 1.65 1.65 0 0 0-1.51-1H3a2 2 0 0 1-2-2 2 2 0 0 1 2-2h.09A1.65 1.65 0 0 0 4.6 9a1.65 1.65 0 0 0-.33-1.82l-.06-.06a2 2 0 0 1 0-2.83 2 2 0 0 1 2.83 0l.06.06a1.65 1.65 0 0 0 1.82.33H9a1.65 1.65 0 0 0 1-1.51V3a2 2 0 0 1 2-2 2 2 0 0 1 2 2v.09a1.65 1.65 0 0 0 1 1.51 1.65 1.65 0 0 0 1.82-.33l.06-.06a2 2 0 0 1 2.83 0 2 2 0 0 1 0 2.83l-.06.06a1.65 1.65 0 0 0-.33 1.82V9a1.65 1.65 0 0 0 1.51 1H21a2 2 0 0 1 2 2 2 2 0 0 1-2 2h-.09a1.65 1.65 0 0 0-1.51 1Z"/>
  </symbol>

  <!-- Refresh Icon - Circular Arrow -->
  <symbol id="refresh" viewBox="0 0 24 24">
    <path fill="none" stroke="currentColor" stroke-width="1.5" stroke-linecap="round" stroke-linejoin="round"
          d="M1 4v6h6"/>
    <path fill="none" stroke="currentColor" stroke-width="1.5" stroke-linecap="round" stroke-linejoin="round"
          d="M3.51 15a9 9 0 1 0 2.13-9.36L1 10"/>
  </symbol>

  <!-- Key Icon -->
  <symbol id="key" viewBox="0 0 24 24">
    <path fill="none" stroke="currentColor" stroke-width="1.5" stroke-linecap="round" stroke-linejoin="round"
          d="M21 2 19 4m0 0-7 7m7-7 2 2m-9 5a5 5 0 1 1-10 0 5 5 0 0 1 10 0Z"/>
  </symbol>

  <!-- Close/X Icon -->
  <symbol id="close" viewBox="0 0 24 24">
    <path fill="none" stroke="currentColor" stroke-width="1.5" stroke-linecap="round" stroke-linejoin="round"
          d="M18 6 6 18M6 6l12 12"/>
  </symbol>

  <!-- Lightbulb Icon - Hint -->
  <symbol id="lightbulb" viewBox="0 0 24 24">
    <path fill="none" stroke="currentColor" stroke-width="1.5" stroke-linecap="round" stroke-linejoin="round"
          d="M9 18h6m-5 4h4m-7-9a7 7 0 1 1 10 0c-1 1-2 2-2 4H9c0-2-1-3-2-4Z"/>
  </symbol>

  <!-- Target Icon - Specific Hint -->
  <symbol id="target" viewBox="0 0 24 24">
    <circle fill="none" stroke="currentColor" stroke-width="1.5" stroke-linecap="round" stroke-linejoin="round"
            cx="12" cy="12" r="10"/>
    <circle fill="none" stroke="currentColor" stroke-width="1.5" stroke-linecap="round" stroke-linejoin="round"
            cx="12" cy="12" r="6"/>
    <circle fill="none" stroke="currentColor" stroke-width="1.5" stroke-linecap="round" stroke-linejoin="round"
            cx="12" cy="12" r="2"/>
  </symbol>

  <!-- Party Popper Icon - Celebration -->
  <symbol id="celebration" viewBox="0 0 24 24">
    <path fill="none" stroke="currentColor" stroke-width="1.5" stroke-linecap="round" stroke-linejoin="round"
          d="M5.8 11.3 2 22l10.7-3.79M4 3h.01M22 8h.01M15 2h.01M22 20h.01M20 2v.01M18 2h.01"/>
    <path fill="none" stroke="currentColor" stroke-width="1.5" stroke-linecap="round" stroke-linejoin="round"
          d="M22 16h.01m-6.87 1.87c-.53.53-1.4.53-1.93 0l-6.8-6.8a1.36 1.36 0 0 1 0-1.93l5.8-5.8c.53-.53 1.4-.53 1.93 0l6.8 6.8c.53.53.53 1.4 0 1.93l-5.8 5.8Z"/>
  </symbol>
</svg>
